<mxfile host="app.diagrams.net" modified="2024-02-18T08:32:30.879Z" agent="Mozilla/5.0 (Windows NT 10.0; Win64; x64) AppleWebKit/537.36 (KHTML, like Gecko) Chrome/121.0.0.0 Safari/537.36" etag="rEPMH0cwd8UY53cq_MTb" version="23.1.1" type="github">
  <diagram name="第 1 页" id="T8wrmOAk5l6GdRUx9qpk">
    <mxGraphModel dx="1877" dy="530" grid="1" gridSize="10" guides="1" tooltips="1" connect="1" arrows="1" fold="1" page="1" pageScale="1" pageWidth="827" pageHeight="1169" math="0" shadow="0">
      <root>
        <mxCell id="0" />
        <mxCell id="1" parent="0" />
        <mxCell id="4kMBKa18f4j2YlNM0wSQ-1" value="登录页" style="rounded=0;whiteSpace=wrap;html=1;" vertex="1" parent="1">
          <mxGeometry x="-150" y="190" width="120" height="60" as="geometry" />
        </mxCell>
        <mxCell id="4kMBKa18f4j2YlNM0wSQ-2" value="user-state接口" style="rounded=0;whiteSpace=wrap;html=1;" vertex="1" parent="1">
          <mxGeometry x="50" y="320" width="120" height="60" as="geometry" />
        </mxCell>
        <mxCell id="4kMBKa18f4j2YlNM0wSQ-11" style="edgeStyle=orthogonalEdgeStyle;rounded=0;orthogonalLoop=1;jettySize=auto;html=1;exitX=1;exitY=0.5;exitDx=0;exitDy=0;entryX=0;entryY=0.5;entryDx=0;entryDy=0;" edge="1" parent="1" source="4kMBKa18f4j2YlNM0wSQ-3" target="4kMBKa18f4j2YlNM0wSQ-5">
          <mxGeometry relative="1" as="geometry" />
        </mxCell>
        <mxCell id="4kMBKa18f4j2YlNM0wSQ-3" value="loading完成" style="rounded=0;whiteSpace=wrap;html=1;" vertex="1" parent="1">
          <mxGeometry x="920" y="320" width="120" height="60" as="geometry" />
        </mxCell>
        <mxCell id="4kMBKa18f4j2YlNM0wSQ-5" value="低优先级接口" style="rounded=0;whiteSpace=wrap;html=1;" vertex="1" parent="1">
          <mxGeometry x="1090" y="320" width="120" height="60" as="geometry" />
        </mxCell>
        <mxCell id="4kMBKa18f4j2YlNM0wSQ-6" style="edgeStyle=orthogonalEdgeStyle;rounded=0;orthogonalLoop=1;jettySize=auto;html=1;exitX=1;exitY=0.5;exitDx=0;exitDy=0;entryX=0;entryY=0.5;entryDx=0;entryDy=0;" edge="1" parent="1" source="4kMBKa18f4j2YlNM0wSQ-2" target="4kMBKa18f4j2YlNM0wSQ-10">
          <mxGeometry relative="1" as="geometry">
            <mxPoint x="268.03999999999996" y="350.79999999999995" as="targetPoint" />
          </mxGeometry>
        </mxCell>
        <mxCell id="4kMBKa18f4j2YlNM0wSQ-17" value="已登录成功" style="edgeLabel;html=1;align=center;verticalAlign=middle;resizable=0;points=[];" vertex="1" connectable="0" parent="4kMBKa18f4j2YlNM0wSQ-6">
          <mxGeometry x="-0.2316" y="2" relative="1" as="geometry">
            <mxPoint as="offset" />
          </mxGeometry>
        </mxCell>
        <mxCell id="4kMBKa18f4j2YlNM0wSQ-9" style="edgeStyle=orthogonalEdgeStyle;rounded=0;orthogonalLoop=1;jettySize=auto;html=1;exitX=1;exitY=0.5;exitDx=0;exitDy=0;entryX=0;entryY=0.5;entryDx=0;entryDy=0;" edge="1" parent="1" source="4kMBKa18f4j2YlNM0wSQ-8" target="4kMBKa18f4j2YlNM0wSQ-2">
          <mxGeometry relative="1" as="geometry" />
        </mxCell>
        <mxCell id="4kMBKa18f4j2YlNM0wSQ-8" value="loading中" style="rounded=0;whiteSpace=wrap;html=1;" vertex="1" parent="1">
          <mxGeometry x="-150" y="320" width="120" height="60" as="geometry" />
        </mxCell>
        <mxCell id="4kMBKa18f4j2YlNM0wSQ-15" style="edgeStyle=orthogonalEdgeStyle;rounded=0;orthogonalLoop=1;jettySize=auto;html=1;exitX=1;exitY=0.5;exitDx=0;exitDy=0;entryX=0;entryY=0.5;entryDx=0;entryDy=0;" edge="1" parent="1" source="4kMBKa18f4j2YlNM0wSQ-10" target="4kMBKa18f4j2YlNM0wSQ-12">
          <mxGeometry relative="1" as="geometry" />
        </mxCell>
        <mxCell id="4kMBKa18f4j2YlNM0wSQ-16" value="全部成功" style="edgeLabel;html=1;align=center;verticalAlign=middle;resizable=0;points=[];" vertex="1" connectable="0" parent="4kMBKa18f4j2YlNM0wSQ-15">
          <mxGeometry x="-0.064" y="-1" relative="1" as="geometry">
            <mxPoint as="offset" />
          </mxGeometry>
        </mxCell>
        <mxCell id="4kMBKa18f4j2YlNM0wSQ-26" style="edgeStyle=orthogonalEdgeStyle;rounded=0;orthogonalLoop=1;jettySize=auto;html=1;exitX=0.5;exitY=1;exitDx=0;exitDy=0;entryX=1;entryY=0.5;entryDx=0;entryDy=0;" edge="1" parent="1" source="4kMBKa18f4j2YlNM0wSQ-10" target="4kMBKa18f4j2YlNM0wSQ-21">
          <mxGeometry relative="1" as="geometry" />
        </mxCell>
        <mxCell id="4kMBKa18f4j2YlNM0wSQ-27" value="任意失败" style="edgeLabel;html=1;align=center;verticalAlign=middle;resizable=0;points=[];" vertex="1" connectable="0" parent="4kMBKa18f4j2YlNM0wSQ-26">
          <mxGeometry x="-0.8519" y="-2" relative="1" as="geometry">
            <mxPoint as="offset" />
          </mxGeometry>
        </mxCell>
        <mxCell id="4kMBKa18f4j2YlNM0wSQ-10" value="" style="rounded=0;whiteSpace=wrap;html=1;" vertex="1" parent="1">
          <mxGeometry x="360" y="310" width="250" height="80" as="geometry" />
        </mxCell>
        <mxCell id="4kMBKa18f4j2YlNM0wSQ-13" style="edgeStyle=orthogonalEdgeStyle;rounded=0;orthogonalLoop=1;jettySize=auto;html=1;exitX=1;exitY=0.5;exitDx=0;exitDy=0;entryX=0;entryY=0.5;entryDx=0;entryDy=0;" edge="1" parent="1" source="4kMBKa18f4j2YlNM0wSQ-12" target="4kMBKa18f4j2YlNM0wSQ-3">
          <mxGeometry relative="1" as="geometry" />
        </mxCell>
        <mxCell id="4kMBKa18f4j2YlNM0wSQ-14" value="成功" style="edgeLabel;html=1;align=center;verticalAlign=middle;resizable=0;points=[];" vertex="1" connectable="0" parent="4kMBKa18f4j2YlNM0wSQ-13">
          <mxGeometry x="-0.16" y="1" relative="1" as="geometry">
            <mxPoint as="offset" />
          </mxGeometry>
        </mxCell>
        <mxCell id="4kMBKa18f4j2YlNM0wSQ-34" style="edgeStyle=orthogonalEdgeStyle;rounded=0;orthogonalLoop=1;jettySize=auto;html=1;exitX=0.75;exitY=1;exitDx=0;exitDy=0;entryX=1;entryY=0.75;entryDx=0;entryDy=0;" edge="1" parent="1" target="4kMBKa18f4j2YlNM0wSQ-21">
          <mxGeometry relative="1" as="geometry">
            <mxPoint x="790" y="380" as="sourcePoint" />
            <mxPoint x="-40" y="495" as="targetPoint" />
            <Array as="points">
              <mxPoint x="770" y="380" />
              <mxPoint x="770" y="495" />
            </Array>
          </mxGeometry>
        </mxCell>
        <mxCell id="4kMBKa18f4j2YlNM0wSQ-35" value="失败" style="edgeLabel;html=1;align=center;verticalAlign=middle;resizable=0;points=[];" vertex="1" connectable="0" parent="4kMBKa18f4j2YlNM0wSQ-34">
          <mxGeometry x="-0.912" y="-1" relative="1" as="geometry">
            <mxPoint as="offset" />
          </mxGeometry>
        </mxCell>
        <mxCell id="4kMBKa18f4j2YlNM0wSQ-12" value="连接ws" style="rounded=0;whiteSpace=wrap;html=1;" vertex="1" parent="1">
          <mxGeometry x="710" y="320" width="120" height="60" as="geometry" />
        </mxCell>
        <mxCell id="4kMBKa18f4j2YlNM0wSQ-18" style="edgeStyle=orthogonalEdgeStyle;rounded=0;orthogonalLoop=1;jettySize=auto;html=1;exitX=0.5;exitY=0;exitDx=0;exitDy=0;entryX=1;entryY=0.5;entryDx=0;entryDy=0;" edge="1" parent="1" source="4kMBKa18f4j2YlNM0wSQ-2" target="4kMBKa18f4j2YlNM0wSQ-1">
          <mxGeometry relative="1" as="geometry">
            <mxPoint x="130" y="160" as="targetPoint" />
          </mxGeometry>
        </mxCell>
        <mxCell id="4kMBKa18f4j2YlNM0wSQ-19" value="未登录/状态失效" style="edgeLabel;html=1;align=center;verticalAlign=middle;resizable=0;points=[];" vertex="1" connectable="0" parent="4kMBKa18f4j2YlNM0wSQ-18">
          <mxGeometry x="-0.298" y="3" relative="1" as="geometry">
            <mxPoint as="offset" />
          </mxGeometry>
        </mxCell>
        <mxCell id="4kMBKa18f4j2YlNM0wSQ-20" value="常规启动接口" style="text;html=1;strokeColor=none;fillColor=none;align=center;verticalAlign=middle;whiteSpace=wrap;rounded=0;" vertex="1" parent="1">
          <mxGeometry x="430" y="310" width="105" height="30" as="geometry" />
        </mxCell>
        <mxCell id="4kMBKa18f4j2YlNM0wSQ-28" style="edgeStyle=orthogonalEdgeStyle;rounded=0;orthogonalLoop=1;jettySize=auto;html=1;exitX=0.5;exitY=0;exitDx=0;exitDy=0;entryX=0.5;entryY=1;entryDx=0;entryDy=0;" edge="1" parent="1" source="4kMBKa18f4j2YlNM0wSQ-21" target="4kMBKa18f4j2YlNM0wSQ-8">
          <mxGeometry relative="1" as="geometry" />
        </mxCell>
        <mxCell id="4kMBKa18f4j2YlNM0wSQ-29" value="点击重试" style="edgeLabel;html=1;align=center;verticalAlign=middle;resizable=0;points=[];" vertex="1" connectable="0" parent="4kMBKa18f4j2YlNM0wSQ-28">
          <mxGeometry x="-0.1086" y="1" relative="1" as="geometry">
            <mxPoint as="offset" />
          </mxGeometry>
        </mxCell>
        <mxCell id="4kMBKa18f4j2YlNM0wSQ-21" value="loading失败&lt;br&gt;点击重试" style="rounded=0;whiteSpace=wrap;html=1;" vertex="1" parent="1">
          <mxGeometry x="-150" y="450" width="120" height="60" as="geometry" />
        </mxCell>
        <mxCell id="4kMBKa18f4j2YlNM0wSQ-22" value="guilds接口" style="rounded=0;whiteSpace=wrap;html=1;" vertex="1" parent="1">
          <mxGeometry x="370" y="340" width="70" height="40" as="geometry" />
        </mxCell>
        <mxCell id="4kMBKa18f4j2YlNM0wSQ-24" value="settings接口" style="rounded=0;whiteSpace=wrap;html=1;" vertex="1" parent="1">
          <mxGeometry x="450" y="340" width="70" height="40" as="geometry" />
        </mxCell>
        <mxCell id="4kMBKa18f4j2YlNM0wSQ-25" value="..." style="rounded=0;whiteSpace=wrap;html=1;" vertex="1" parent="1">
          <mxGeometry x="530" y="340" width="70" height="40" as="geometry" />
        </mxCell>
      </root>
    </mxGraphModel>
  </diagram>
</mxfile>
